<?xml version="1.0" encoding="UTF-8" standalone="no"?>
<svg
   xmlns:dc="http://purl.org/dc/elements/1.1/"
   xmlns:cc="http://creativecommons.org/ns#"
   xmlns:rdf="http://www.w3.org/1999/02/22-rdf-syntax-ns#"
   xmlns:svg="http://www.w3.org/2000/svg"
   xmlns="http://www.w3.org/2000/svg"
   xmlns:sodipodi="http://sodipodi.sourceforge.net/DTD/sodipodi-0.dtd"
   xmlns:inkscape="http://www.inkscape.org/namespaces/inkscape"
   id="Capa_1"
   enable-background="new 0 0 508.279 508.279"
   height="512"
   viewBox="0 0 508.279 508.279"
   width="512"
   version="1.1"
   sodipodi:docname="favicon.ico.svg"
   inkscape:version="0.92.5 (2060ec1f9f, 2020-04-08)">
  <metadata
     id="metadata8">
    <rdf:RDF>
      <cc:Work
         rdf:about="">
        <dc:format>image/svg+xml</dc:format>
        <dc:type
           rdf:resource="http://purl.org/dc/dcmitype/StillImage" />
        <dc:title></dc:title>
      </cc:Work>
    </rdf:RDF>
  </metadata>
  <defs
     id="defs6" />
  <sodipodi:namedview
     pagecolor="#ffffff"
     bordercolor="#666666"
     borderopacity="1"
     objecttolerance="10"
     gridtolerance="10"
     guidetolerance="10"
     inkscape:pageopacity="0"
     inkscape:pageshadow="2"
     inkscape:window-width="742"
     inkscape:window-height="480"
     id="namedview4"
     showgrid="false"
     inkscape:zoom="0.4609375"
     inkscape:cx="256"
     inkscape:cy="256"
     inkscape:window-x="0"
     inkscape:window-y="0"
     inkscape:window-maximized="0"
     inkscape:current-layer="Capa_1" />
  <path
     id="XMLID_560_"
     d="m508.279 290.407v-154.993l-95.047-42.95v78.45h-24.486l-40.625-136.681h-195.582l-40.626 136.681h-81.913v-57.722h-30v145.443h30v-57.722h26.091v163.842c-23.436 6.567-40.68 28.106-40.68 53.61 0 30.702 24.978 55.68 55.68 55.68 25.504 0 47.044-17.244 53.61-40.68h249.92c6.567 23.437 28.105 40.68 53.61 40.68 30.702 0 55.68-24.978 55.68-55.68 0-25.504-17.243-47.044-40.68-53.61v-74.349h65.048zm-65.047-151.466 35.047 15.837v105.628h-35.047v-89.493zm-300.023 31.973 15.329-51.573h183.582l15.329 51.573h-48.095v30h50.521l-4.061 24.584c-8.565 51.854-52.929 89.491-105.485 89.491-52.557 0-96.92-37.636-105.485-89.491l-4.061-24.584h50.521v-30zm182.531-106.681 7.463 25.107h-165.747l7.463-25.107zm-254.649 379.813c-14.16 0-25.68-11.52-25.68-25.68s11.52-25.68 25.68-25.68 25.68 11.52 25.68 25.68-11.52 25.68-25.68 25.68zm382.821-25.68c0 14.16-11.52 25.68-25.68 25.68s-25.68-11.52-25.68-25.68 11.52-25.68 25.68-25.68 25.68 11.521 25.68 25.68zm-40.68-53.61c-18.661 5.229-33.382 19.95-38.61 38.61h-249.92c-5.229-18.66-19.95-33.382-38.61-38.61v-163.842h24.285l4.869 29.473c5.281 31.973 21.799 61.127 46.51 82.092 24.711 20.964 56.168 32.51 88.574 32.51 32.407 0 63.863-11.545 88.574-32.51s41.229-50.119 46.511-82.091l4.868-29.474h22.95v163.842z" />
</svg>
